<svg width="141.732" height="141.732" xmlns="http://www.w3.org/2000/svg">

 <g>
  <title>background</title>
  <rect fill="none" id="canvas_background" height="402" width="582" y="-1" x="-1"/>
 </g>
 <g>
  <title>Layer 1</title>
  <ellipse stroke="null" ry="71.186854" rx="70.318893" id="svg_4" cy="70.866003" cx="70.866001" stroke-opacity="null" stroke-width="null" fill="#000000"/>
  <path stroke="null" fill="#ffffff" id="svg_1" d="m92.887671,74.868984c0,-12.871447 -9.856818,-23.305813 -22.02093,-23.305813c-12.161886,0 -22.02093,10.432787 -22.02093,23.305813c0,12.871447 9.859044,23.304234 22.02093,23.304234c12.162628,0 22.02093,-10.432787 22.02093,-23.304234m3.536614,0c0,15.152213 -11.44299,27.435507 -25.558286,27.435507c-14.114554,0 -25.557544,-12.283295 -25.557544,-27.435507c0,-15.151423 11.44299,-27.436297 25.557544,-27.436297c14.116038,0 25.558286,12.284874 25.558286,27.436297m26.490848,27.952607l0,-0.001579l0,-55.387325c0,-2.352607 -1.792419,-4.259956 -4.003266,-4.259956l-32.380011,0l0,-0.106578l-4.009201,-4.264693c-0.0549,-2.263398 -1.766452,-4.086274 -3.893465,-4.144694l-0.005935,-0.004737l-16.128799,0l0,0c-2.199719,0.009474 -3.976558,1.904191 -3.987686,4.243377l-4.00475,4.261535l0,0.015789l-31.681146,0c-2.211589,0 -4.004008,1.907349 -4.004008,4.259956l0,55.387325c0,2.352607 1.792419,4.259956 4.004008,4.259956l96.090993,0c2.210847,0.000789 4.003266,-1.906559 4.003266,-4.258377"/>
 </g>
</svg>